<svg width="28" height="28" viewBox="0 0 28 28" fill="none" xmlns="http://www.w3.org/2000/svg">
<g clip-path="url(#clip0_6_327)">
<path d="M6.68252 5.97526C10.8919 2.1393 17.4651 2.27714 21.5939 6.40601C25.8431 10.6552 25.8653 17.4932 21.6792 21.6792C17.4932 25.8653 10.6551 25.8432 6.40595 21.594C3.89094 19.079 2.85514 15.6543 3.30025 12.407L3.10211 12.3799L3.30025 12.407C3.39024 11.7504 2.93092 11.1452 2.27432 11.0552C1.61774 10.9652 1.01248 11.4245 0.922479 12.0811C0.379046 16.0458 1.64465 20.2268 4.7089 23.291C9.87921 28.4613 18.2369 28.5157 23.3764 23.3764C28.5157 18.237 28.4613 9.87927 23.291 4.70895C18.2351 -0.347033 10.1311 -0.510793 4.96923 4.29032L4.96657 3.76061C4.96324 3.09787 4.42329 2.56331 3.76055 2.56664L3.76055 2.56664C3.09782 2.56999 2.56326 3.10993 2.5666 3.77266C2.5666 3.77266 2.5666 3.77266 2.5666 3.77266L2.58365 7.16674C2.58697 7.82475 3.11957 8.35738 3.77761 8.36069L7.17167 8.37774C7.83441 8.38107 8.37436 7.84653 8.37769 7.18379C8.38102 6.52106 7.84647 5.9811 7.18374 5.97778L6.68252 5.97526ZM12.7999 14.4141V14.497L12.8584 14.5556L16.4847 18.1817C16.4847 18.1817 16.4847 18.1817 16.4847 18.1817C16.9532 18.6503 17.7131 18.6503 18.1817 18.1817C18.6503 17.7132 18.6503 16.9533 18.1817 16.4847L15.1999 13.5029V8.66656C15.1999 8.00382 14.6626 7.46656 13.9999 7.46656C13.3371 7.46656 12.7999 8.00382 12.7999 8.66656V14.4141Z" fill="#68778F" stroke="#68778F" stroke-width="0.4"/>
</g>
<defs>
<clipPath id="clip0_6_327">
<rect width="28" height="28" fill="white"/>
</clipPath>
</defs>
</svg>
