<svg width="19" height="19" viewBox="0 0 19 19" fill="none" xmlns="http://www.w3.org/2000/svg">
<g opacity="0.7" clip-path="url(#clip0_6_586)">
<path d="M13.4584 16.625V15.0417C13.4584 14.2018 13.1248 13.3964 12.5309 12.8025C11.9371 12.2086 11.1316 11.875 10.2917 11.875H3.95841C3.11856 11.875 2.31311 12.2086 1.71924 12.8025C1.12538 13.3964 0.791748 14.2018 0.791748 15.0417V16.625" stroke="#666666" stroke-width="2" stroke-linecap="round" stroke-linejoin="round"/>
<path d="M7.12492 8.70833C8.87382 8.70833 10.2916 7.29057 10.2916 5.54167C10.2916 3.79276 8.87382 2.375 7.12492 2.375C5.37602 2.375 3.95825 3.79276 3.95825 5.54167C3.95825 7.29057 5.37602 8.70833 7.12492 8.70833Z" stroke="#666666" stroke-width="2" stroke-linecap="round" stroke-linejoin="round"/>
<path d="M18.2083 16.6251V15.0418C18.2077 14.3401 17.9742 13.6586 17.5443 13.104C17.1145 12.5495 16.5126 12.1534 15.8333 11.978" stroke="#666666" stroke-width="2" stroke-linecap="round" stroke-linejoin="round"/>
<path d="M12.6667 2.47803C13.3479 2.65243 13.9517 3.04858 14.3828 3.60402C14.8139 4.15946 15.048 4.8426 15.048 5.54574C15.048 6.24887 14.8139 6.93201 14.3828 7.48745C13.9517 8.04289 13.3479 8.43904 12.6667 8.61344" stroke="#666666" stroke-width="2" stroke-linecap="round" stroke-linejoin="round"/>
</g>
<defs>
<clipPath id="clip0_6_586">
<rect width="19" height="19" fill="white"/>
</clipPath>
</defs>
</svg>
